<?xml version="1.0" encoding="UTF-8" standalone="no"?>
<!-- Created with Inkscape (http://www.inkscape.org/) -->

<svg
   xmlns:dc="http://purl.org/dc/elements/1.1/"
   xmlns:cc="http://creativecommons.org/ns#"
   xmlns:rdf="http://www.w3.org/1999/02/22-rdf-syntax-ns#"
   xmlns:svg="http://www.w3.org/2000/svg"
   xmlns="http://www.w3.org/2000/svg"
   version="1.1"
   width="500"
   height="511.27805"
   id="svg2">
  <metadata
     id="metadata9">
    <rdf:RDF>
      <cc:Work
         rdf:about="">
        <dc:format>image/svg+xml</dc:format>
        <dc:type
           rdf:resource="http://purl.org/dc/dcmitype/StillImage" />
        <dc:title></dc:title>
      </cc:Work>
    </rdf:RDF>
  </metadata>
  <defs
     id="defs7" />
  <path
     d="m 143.6223,511.26457 c -8.07202,-0.10645 -16.42832,-0.4174 -18.56964,-0.68988 -2.14148,-0.27277 -6.81364,-1.08316 -10.38258,-1.80099 -3.56909,-0.71805 -10.28518,-2.80298 -14.924912,-4.63348 -4.639639,-1.83016 -12.815878,-5.71575 -18.169362,-8.63468 -5.353489,-2.91871 -13.64111,-8.13726 -18.416958,-11.59648 -4.775846,-3.45923 -12.405066,-10.30939 -16.953855,-15.22237 -4.548799,-4.91312 -11.053612,-13.08116 -14.455119,-18.15106 -3.401582,-5.06977 -8.707498,-14.3148 -11.790931,-20.54416 -3.083422,-6.22943 -7.404157,-16.445 -9.601639,-22.70141 C 8.1598448,401.03374 5.1241391,389.06143 3.6113018,380.68489 1.6480585,369.81445 0.66449614,357.7383 0.17527156,338.49732 -0.23883523,322.2105 0.09584543,305.00075 1.020733,295.02046 1.8627036,285.9349 3.7050693,271.24769 5.1148592,262.38201 6.5246506,253.51669 9.16517,239.50028 10.982675,231.23465 c 1.817481,-8.26569 5.29594,-21.45273 7.729874,-29.3046 2.433879,-7.85168 6.238505,-17.41393 8.454676,-21.24983 3.653165,-6.32241 4.21873,-6.78435 6.057067,-4.94606 1.510029,1.51015 1.978857,4.44995 1.83648,11.51621 -0.105079,5.21872 -1.070643,14.30675 -2.145478,20.19551 -1.074849,5.88882 -2.85523,15.52511 -3.956381,21.41404 -1.101151,5.88875 -2.26402,13.04271 -2.584187,15.8982 -0.320158,2.85522 -1.174063,8.40334 -1.897564,12.32923 -0.723501,3.92594 -1.663117,17.94194 -2.08805,31.14753 -0.59842,18.59685 -0.306576,27.04551 1.294478,37.47682 1.136884,7.4071 4.185627,19.60288 6.774979,27.10202 2.589338,7.49893 6.060995,15.74723 7.714756,18.3291 1.653777,2.58217 5.817693,8.41373 9.25315,12.95916 3.435478,4.54567 11.184959,12.26839 17.221107,17.1618 6.036116,4.89332 15.088382,10.90213 20.116112,13.35254 5.027743,2.45051 12.645449,5.62942 16.928226,7.06428 4.28275,1.4352 12.45893,3.6389 18.16939,4.89772 7.14679,1.57569 15.64047,2.26174 27.25419,2.2021 12.8427,-0.0655 20.90036,-0.90444 33.74321,-3.51245 9.27938,-1.88431 18.03994,-3.92198 19.46728,-4.52813 1.42737,-0.60612 7.8517,-2.98809 14.27557,-5.29325 6.42455,-2.3051 18.10484,-7.29502 25.95654,-11.08854 7.85185,-3.79364 19.53207,-9.90603 25.95629,-13.58285 6.42429,-3.67707 13.7135,-7.87581 16.19856,-9.33065 2.48498,-1.45497 11.12633,-7.25369 19.20317,-12.88645 8.07671,-5.6326 14.94315,-10.24117 15.25839,-10.24117 0.31577,0 1.60272,-0.86064 2.85996,-1.91255 1.25735,-1.05214 10.94572,-8.62932 21.52984,-16.83897 10.58451,-8.20924 24.0165,-18.8535 29.8498,-23.65363 5.83331,-4.80009 13.52592,-11.44653 17.09495,-14.76968 3.56897,-3.32327 11.16109,-10.15589 16.87159,-15.18352 5.71033,-5.02773 18.26683,-16.9526 27.90294,-26.49986 9.63632,-9.54726 21.60868,-21.91389 26.60529,-27.48116 4.99665,-5.56759 9.53031,-10.91739 10.07489,-11.88866 0.6814,-1.21473 -1.34342,-3.6713 -6.48931,-7.87272 -4.11335,-3.35879 -10.98319,-7.71217 -15.26586,-9.67442 -4.28272,-1.96239 -11.29108,-4.59895 -15.57387,-5.8597 -6.37335,-1.87602 -15.44359,-2.46198 -49.96583,-3.22815 -26.85703,-0.59627 -44.06498,-1.51186 -47.36997,-2.52074 -2.85552,-0.87144 -8.64439,-3.4115 -12.86434,-5.64471 -4.21999,-2.23303 -11.27969,-7.6142 -15.68789,-11.95817 -4.86269,-4.79112 -9.41153,-10.84908 -11.56495,-15.401 -1.95233,-4.12684 -4.4504,-11.68321 -5.55157,-16.79211 -1.1009,-5.10897 -1.99786,-15.12913 -1.99322,-22.26712 0.004,-7.13798 0.68194,-16.6277 1.50479,-21.088272 0.82273,-4.46055 2.84396,-12.34478 4.49143,-17.52048 1.6474,-5.17575 4.78095,-12.91451 6.96352,-17.19729 2.18233,-4.28279 6.87437,-11.875 10.4265,-16.8716 3.55248,-4.99658 9.59129,-12.29893 13.42026,-16.22738 3.82892,-3.92848 9.66019,-9.3391 12.95845,-12.02367 3.29835,-2.684556 10.59851,-7.152946 16.22255,-9.9298362 5.62472,-2.77685 12.64003,-5.69265 15.59062,-6.47957 2.9504,-0.78677995 9.95854,-1.47461995 15.57374,-1.52851995 6.44098,-0.062 12.60449,0.71643 16.6983,2.10861995 3.56897,1.21373 9.11714,3.55614 12.32936,5.20555 3.21206,1.64939 8.8731,4.9387602 12.58013,7.3098202 3.70671,2.37097 11.83573,8.983006 18.06401,14.693396 6.22838,5.71039 14.34475,14.47063 18.03653,19.46723 3.69159,4.99659 9.37309,13.75682 12.62577,19.46721 3.25286,5.71041 8.28354,16.80671 11.17967,24.65849 2.8965,7.851772 6.40035,18.948102 7.78722,24.658492 1.38671,5.71039 3.30615,14.47063 4.26495,19.46719 1.10091,5.73536 1.70573,17.93708 1.64045,33.09425 -0.0736,17.06418 -0.75518,27.38852 -2.356,35.69006 -1.23892,6.42413 -3.93663,18.39647 -5.99495,26.60495 -2.05848,8.20887 -5.48696,19.98523 -7.61858,26.16994 -2.13211,6.18476 -5.9295,15.32238 -8.43935,20.30608 -2.50963,4.98344 -8.66854,14.15109 -13.68617,20.37256 -5.01757,6.22097 -13.94714,16.61443 -19.84309,23.09618 -5.89607,6.48164 -18.31238,19.33132 -27.59167,28.55468 -9.27946,9.22344 -25.924,25.05673 -36.98775,35.18513 -11.06393,10.12824 -27.70838,24.52166 -36.98777,31.98542 -9.27936,7.46369 -22.12785,17.42234 -28.55184,22.1301 -6.4243,4.70818 -19.56474,13.7922 -29.20099,20.18718 -9.6364,6.39473 -20.73258,13.33657 -24.65843,15.42681 -3.92594,2.08992 -7.42966,4.09649 -7.78683,4.45882 -0.35699,0.36235 -6.19712,3.39957 -12.97816,6.74945 -6.78105,3.34981 -17.60293,8.09979 -24.04837,10.55551 -6.44551,2.45557 -17.24982,5.94798 -24.00962,7.76064 -6.75956,1.8124 -16.49039,3.92488 -21.62373,4.69391 -5.13301,0.76862 -15.93762,1.31044 -24.00961,1.20346 z M 383.96667,111.43578 c 15.34668,-0.0952 28.38892,-0.4235 28.98294,-0.72963 0.59375,-0.30615 -0.57402,-2.30711 -2.5959,-4.4466 -2.02129,-2.13948 -7.79659,-7.276912 -12.83381,-11.416522 -5.03703,-4.13963 -12.76727,-9.41821 -17.17789,-11.7302 -4.69448,-2.46084 -10.72689,-4.46382 -14.55003,-4.83116 -4.46505,-0.42904 -8.47184,0.11384 -12.66814,1.71639 -3.37511,1.28914 -9.25543,5.29282 -13.06634,8.89707 -3.81086,3.60425 -8.0161,8.80295 -9.34446,11.552652 -1.34677,2.78762 -1.68908,4.39645 -0.77322,3.63648 1.17187,-0.97259 2.44367,-0.80162 4.44034,0.5969 1.53902,1.07793 7.04739,3.0776 12.24084,4.44373 8.02324,2.11048 13.63713,2.45787 37.34567,2.31089 z"
     id="path3229"
     style="fill:#000000" />
</svg>
