<?xml version="1.0" encoding="UTF-8" standalone="no"?>
<!-- Created with Inkscape (http://www.inkscape.org/) -->

<svg
   xmlns:dc="http://purl.org/dc/elements/1.1/"
   xmlns:cc="http://creativecommons.org/ns#"
   xmlns:rdf="http://www.w3.org/1999/02/22-rdf-syntax-ns#"
   xmlns:svg="http://www.w3.org/2000/svg"
   xmlns="http://www.w3.org/2000/svg"
   version="1.1"
   width="500"
   height="511.27805"
   id="svg2">
  <metadata
     id="metadata9">
    <rdf:RDF>
      <cc:Work
         rdf:about="">
        <dc:format>image/svg+xml</dc:format>
        <dc:type
           rdf:resource="http://purl.org/dc/dcmitype/StillImage" />
        <dc:title></dc:title>
      </cc:Work>
    </rdf:RDF>
  </metadata>
  <defs
     id="defs7" />
  <path
     d="m 384.78125,0 c -2.42924,0.02331818 -5.08444,0.18895445 -7.59375,0.40625 l 15.90625,0 C 390.48473,0.11812852 387.6615,-0.0277249 384.78125,0 z"
     id="path3126"
     style="fill:#000000;fill-opacity:1;fill-rule:evenodd;stroke:none" />
  <path
     d="m 393.09375,0.40625 c 3.22542,0.35619214 6.14309,0.9491138 8.40625,1.71875 3.56897,1.21373 9.10028,3.53809 12.3125,5.1875 3.21206,1.64939 8.88672,4.94144 12.59375,7.3125 3.70671,2.37097 11.83422,8.97711 18.0625,14.6875 6.22838,5.71039 14.33947,14.47215 18.03125,19.46875 3.69159,4.99659 9.37232,13.75836 12.625,19.46875 3.25286,5.71041 8.29137,16.80447 11.1875,24.65625 2.8965,7.85177 6.39438,18.94586 7.78125,24.65625 1.38671,5.71039 3.2912,14.47219 4.25,19.46875 0.53339,2.77876 0.9693,7.11601 1.25,12.53125 l 0,-149.15625 -106.5,0 z"
     id="path3124"
     style="fill:#4db31b;fill-opacity:1;fill-rule:evenodd;stroke:none" />
  <path
     d="m 499.59375,149.5625 0,37.75 c 0.23284,-4.89002 0.3775,-10.5218 0.40625,-17.1875 0.0337,-7.81359 -0.10759,-14.80067 -0.40625,-20.5625 z"
     id="path3122"
     style="fill:#000000;fill-opacity:1;fill-rule:evenodd;stroke:none" />
  <path
     d="m 499.59375,187.3125 c -0.36324,7.62843 -0.99325,13.44125 -1.96875,18.5 -1.23892,6.42413 -3.91043,18.41652 -5.96875,26.625 -2.05848,8.20887 -5.49338,19.97154 -7.625,26.15625 -2.13211,6.18476 -5.92765,15.3288 -8.4375,20.3125 -2.50963,4.98344 -8.66987,14.15353 -13.6875,20.375 -5.01757,6.22097 -13.9478,16.612 -19.84375,23.09375 -5.89607,6.48164 -18.31446,19.33914 -27.59375,28.5625 -9.27946,9.22344 -25.93625,25.0591 -37,35.1875 -11.06393,10.12824 -27.68936,24.50499 -36.96875,31.96875 -9.27936,7.46369 -22.13851,17.41724 -28.5625,22.125 -6.4243,4.70818 -19.55125,13.79252 -29.1875,20.1875 -9.6364,6.39473 -20.7304,13.34726 -24.65625,15.4375 -3.92594,2.08992 -7.45533,4.10642 -7.8125,4.46875 -0.35699,0.36235 -6.18771,3.40012 -12.96875,6.75 -6.78105,3.34981 -17.61706,8.07553 -24.0625,10.53125 -6.44551,2.45557 -17.2402,5.96859 -24,7.78125 -6.75956,1.8124 -16.49166,3.91847 -21.625,4.6875 -2.13875,0.32026 -5.28113,0.60152 -8.78125,0.8125 l 340.75,0 0,-323.5625 z"
     id="path3120"
     style="fill:#1b3db3;fill-opacity:1;fill-rule:evenodd;stroke:none" />
  <path
     d="m 158.84375,510.875 -28.90625,0 c 3.67933,0.16668 8.64963,0.30856 13.6875,0.375 4.70866,0.0624 10.31859,-0.0796 15.21875,-0.375 z"
     id="path3118"
     style="fill:#000000;fill-opacity:1;fill-rule:evenodd;stroke:none" />
  <path
     d="m 129.9375,510.875 c -2.21595,-0.10039 -4.07011,-0.21008 -4.875,-0.3125 -2.14148,-0.27277 -6.83731,-1.06342 -10.40625,-1.78125 C 111.08716,508.0632 104.38973,505.9555 99.75,504.125 95.110361,502.29484 86.915984,498.41893 81.5625,495.5 76.209011,492.58129 67.932098,487.36547 63.15625,483.90625 58.380404,480.44702 50.767539,473.60048 46.21875,468.6875 41.669951,463.77438 35.151507,455.60115 31.75,450.53125 28.348418,445.46148 23.052183,436.22936 19.96875,430 16.885328,423.77057 12.541232,413.53766 10.34375,407.28125 8.1462908,401.02493 5.1378373,389.06404 3.625,380.6875 1.9338905,371.32386 0.95374205,361.02406 0.40625,346.0625 l 0,164.8125 129.53125,0 z"
     id="path3116"
     style="fill:#f3e700;fill-opacity:1;fill-rule:evenodd;stroke:none" />
  <path
     d="m 0.40625,346.0625 0,-41.5 c -0.43337828,9.69891 -0.52085952,22.05553 -0.21875,33.9375 0.0678136,2.66708 0.13064743,5.15488 0.21875,7.5625 z"
     id="path3114"
     style="fill:#000000;fill-opacity:1;fill-rule:evenodd;stroke:none" />
  <path
     d="m 0.40625,304.5625 c 0.16066089,-3.59555 0.37485949,-6.83203 0.625,-9.53125 0.8419706,-9.08556 2.6839601,-23.79057 4.09375,-32.65625 1.4097914,-8.86532 4.026245,-22.85937 5.84375,-31.125 1.817481,-8.26569 5.316066,-21.46063 7.75,-29.3125 2.433879,-7.85168 6.221329,-17.4141 8.4375,-21.25 3.653165,-6.32241 4.224163,-6.80704 6.0625,-4.96875 1.510029,1.51015 1.986127,4.46499 1.84375,11.53125 -0.105079,5.21872 -1.081415,14.29874 -2.15625,20.1875 -1.074849,5.88882 -2.836349,15.54857 -3.9375,21.4375 -1.101151,5.88875 -2.273583,13.01951 -2.59375,15.875 -0.320158,2.85522 -1.182749,8.41786 -1.90625,12.34375 -0.723501,3.92594 -1.668817,17.95066 -2.09375,31.15625 -0.59842,18.59685 -0.288554,27.03744 1.3125,37.46875 1.136884,7.4071 4.191898,19.59461 6.78125,27.09375 2.589338,7.49893 6.064989,15.76188 7.71875,18.34375 1.653777,2.58217 5.814543,8.39207 9.25,12.9375 3.435478,4.54567 11.182602,12.26284 17.21875,17.15625 6.036116,4.89332 15.06602,10.92459 20.09375,13.375 5.027743,2.45051 12.654723,5.62764 16.9375,7.0625 4.28275,1.4352 12.47704,3.64743 18.1875,4.90625 7.14679,1.57569 15.63628,2.24714 27.25,2.1875 12.8427,-0.0655 20.8759,-0.89199 33.71875,-3.5 9.27938,-1.88431 18.04141,-3.9251 19.46875,-4.53125 1.42737,-0.60612 7.85738,-3.00734 14.28125,-5.3125 6.42455,-2.3051 18.11705,-7.30023 25.96875,-11.09375 7.85185,-3.79364 19.51328,-9.88568 25.9375,-13.5625 6.42429,-3.67707 13.73369,-7.88891 16.21875,-9.34375 2.48498,-1.45497 11.11066,-7.24224 19.1875,-12.875 8.07671,-5.6326 14.96601,-10.25 15.28125,-10.25 0.31577,0 1.58651,-0.85434 2.84375,-1.90625 1.25735,-1.05214 10.94713,-8.6341 21.53125,-16.84375 10.58451,-8.20924 24.01045,-18.85612 29.84375,-23.65625 5.83331,-4.80009 13.52472,-11.42685 17.09375,-14.75 3.56897,-3.32327 11.1645,-10.15987 16.875,-15.1875 5.71033,-5.02773 18.27014,-16.95274 27.90625,-26.5 9.63632,-9.54726 21.59714,-21.93273 26.59375,-27.5 4.99665,-5.56759 9.54917,-10.90373 10.09375,-11.875 0.6814,-1.21473 -1.35411,-3.67358 -6.5,-7.875 -4.11335,-3.35879 -10.96733,-7.72525 -15.25,-9.6875 -4.28272,-1.96239 -11.31096,-4.583 -15.59375,-5.84375 -6.37335,-1.87602 -15.44651,-2.45258 -49.96875,-3.21875 -26.85703,-0.59627 -44.03876,-1.52237 -47.34375,-2.53125 -2.85552,-0.87144 -8.65505,-3.42304 -12.875,-5.65625 -4.21999,-2.23303 -11.2793,-7.59353 -15.6875,-11.9375 -4.86269,-4.79112 -9.40908,-10.85433 -11.5625,-15.40625 -1.95233,-4.12684 -4.46133,-11.7036 -5.5625,-16.8125 -1.1009,-5.10897 -2.00464,-15.11201 -2,-22.25 0.004,-7.13798 0.7084,-16.63318 1.53125,-21.09375 0.82273,-4.46055 2.82128,-12.35555 4.46875,-17.53125 1.6474,-5.17575 4.78618,-12.90472 6.96875,-17.1875 2.18233,-4.28279 6.88537,-11.8784 10.4375,-16.875 3.55248,-4.99658 9.57728,-12.2903 13.40625,-16.21875 3.82892,-3.92848 9.67049,-9.34668 12.96875,-12.03125 C 340.7046,15.252944 348.00096,10.77689 353.625,8 c 5.62472,-2.77685 12.64316,-5.68183 15.59375,-6.46875 1.674,-0.4464038 4.67778,-0.84001656 7.96875,-1.125 l -376.78125,0 0,304.15625 z"
     id="path3112"
     style="fill:#b31f1b;fill-opacity:1;fill-rule:evenodd;stroke:none" />
  <path
     d="m 362.53125,78.15625 c -3.2073,0.0468 -6.25902,0.641838 -9.40625,1.84375 -3.37511,1.28914 -9.25159,5.302 -13.0625,8.90625 -3.81086,3.60425 -8.01539,8.781548 -9.34375,11.53125 -1.34677,2.78762 -1.69711,4.41622 -0.78125,3.65625 1.17187,-0.97259 2.44083,-0.80477 4.4375,0.59375 1.53902,1.07793 7.05655,3.07137 12.25,4.4375 8.02324,2.11048 13.63521,2.45948 37.34375,2.3125 15.34668,-0.0952 28.37473,-0.41262 28.96875,-0.71875 0.59375,-0.30615 -0.57187,-2.32926 -2.59375,-4.46875 -2.02129,-2.13948 -7.77528,-7.26664 -12.8125,-11.40625 -5.03703,-4.13963 -12.77688,-9.40676 -17.1875,-11.71875 -4.69448,-2.46084 -10.73936,-4.47641 -14.5625,-4.84375 -1.11626,-0.10726 -2.1809,-0.140601 -3.25,-0.125 z"
     id="rect3082"
     style="fill:#1a98a8;fill-opacity:1;fill-rule:evenodd;stroke:none" />
</svg>
